PathFileType	4	(X/Y/Z)	23_coords_data.trc
DataRate	CameraRate	NumFrames	NumMarkers	Units	OrigDataRate	OrigDataStartFrame	OrigNumFrames
30.0	30.0	6	21	m	30.0	11	71
Frame#	Time	THUMB_TIP	THUMB_IP	THUMB_MCP	THUMB_CMC	INDEX_TIP	INDEX_DIP	INDEX_PIP	INDEX_MCP	MIDDLE_TIP	MIDDLE_DIP	MIDDLE_PIP	MIDDLE_MCP	RING_TIP	RING_DIP	RING_PIP	RING_MCP	PINKY_TIP	PINKY_DIP	PINKY_PIP	PINKY_MCP	WRIST
X1	Y1	Z1	X2	Y2	Z2	X3	Y3	Z3	X4	Y4	Z4	X5	Y5	Z5	X6	Y6	Z6	X7	Y7	Z7	X8	Y8	Z8	X9	Y9	Z9	X10	Y10	Z10	X11	Y11	Z11	X12	Y12	Z12	X13	Y13	Z13	X14	Y14	Z14	X15	Y15	Z15	X16	Y16	Z16	X17	Y17	Z17	X18	Y18	Z18	X19	Y19	Z19	X20	Y20	Z20	X21	Y21	Z21
10	0.3333333333333333	0.003600899934768676	0.06044020080566406	0.96264501953125	-0.007023859977722168	0.03767959976196289	0.9651170043945313	-0.03537360000610352	0.024905000686645508	0.968344970703125	-0.06183330154418945	0.03652299880981445	0.9774869995117188	0.02965970039367676	0.024910400390625	0.8616810302734375	0.013127599716186523	0.025786399841308594	0.8787310180664063	-0.00566294002532959	0.027779399871826174	0.8937769775390625	-0.03990010070800781	0.0335796012878418	0.9185560302734375	-0.015989700317382814	0.044848800659179684	0.9557340087890625	0.001004830002784729	0.04939569854736328	0.9451160278320313	0.001176429986953735	0.05602220153808594	0.9184760131835937	-0.044858699798583986	0.05714870071411133	0.9159719848632812	-0.013561200141906739	0.055211498260498044	0.962885009765625	-0.0007402930259704591	0.06446399688720703	0.9509509887695312	-0.002625380039215088	0.07734369659423829	0.927719970703125	-0.046223201751708985	0.07680919647216797	0.9271290283203125	0.011519800186157227	0.12570600128173828	0.9167639770507813	-0.002104559898376465	0.11263800048828125	0.9264719848632812	-0.015244500160217285	0.10139900207519531	0.9338170166015625	-0.03909609985351563	0.08505919647216797	0.9446480102539062	-0.09890000152587891	0.05115459823608398	0.985676025390625
11	0.36666666666666664	0.003605309963226318	0.060646099090576173	0.962791015625	-0.007016759872436523	0.037992198944091796	0.96525	-0.03534830093383789	0.025051599502563478	0.968343994140625	-0.06177399826049805	0.03673860168457031	0.9778619995117187	0.029685199737548826	0.025264799118041994	0.8617059936523438	0.013180100440979003	0.026074600219726563	0.8787230224609375	-0.00560161018371582	0.0280398006439209	0.8938569946289062	-0.039810901641845704	0.03377299880981445	0.9186110229492187	-0.015736599922180176	0.04519499969482422	0.9565599975585938	0.0010422600507736198	0.049491500854492186	0.945333984375	0.001191499948501587	0.05624440002441406	0.9186270141601562	-0.04479830169677734	0.05732529830932617	0.9160460205078125	-0.013539400100708008	0.05546030044555664	0.962906982421875	-0.0009339200258255	0.06466570281982421	0.9511740112304687	-0.00260423994064331	0.07753510284423829	0.9278389892578125	-0.04617060089111328	0.07689620208740235	0.9269849853515625	0.011498499870300292	0.1259219970703125	0.9168779907226563	-0.0021259200572967527	0.1128499984741211	0.9266389770507812	-0.01523169994354248	0.10163999938964843	0.9339349975585938	-0.039231899261474606	0.08529560089111328	0.944791015625	-0.09895240020751953	0.051351699829101566	0.9856740112304687
12	0.4	0.0035723600387573243	0.06080440139770508	0.9626300048828125	-0.006974559783935547	0.038267898559570315	0.9650360107421875	-0.03526029968261719	0.025275400161743164	0.9683880004882812	-0.061675899505615236	0.03683169937133789	0.977572021484375	0.029606000900268555	0.025749399185180665	0.861510009765625	0.013077799797058105	0.02644919967651367	0.8785280151367187	-0.005739739894866943	0.028351200103759765	0.8936320190429687	-0.03988629913330078	0.033940601348876956	0.918510986328125	-0.015975000381469727	0.0452504997253418	0.9559039916992188	0.0010399600267410269	0.049714599609375	0.9450999755859375	0.0010938299894332878	0.05652949905395508	0.9183380126953125	-0.04490530014038086	0.05751269912719727	0.9159569702148438	-0.013182600021362305	0.055567100524902345	0.9623049926757813	-0.000968493998050689	0.0649083023071289	0.9510479736328125	-0.002670419931411743	0.07777010345458985	0.9276380004882813	-0.04646110153198242	0.07725440216064453	0.9272589721679687	0.011482999801635743	0.12609500122070313	0.9168499755859375	-0.002148619890213012	0.11302799987792969	0.9265759887695313	-0.015260800361633301	0.10183499908447266	0.9338740234375	-0.03901219940185547	0.08552799987792968	0.94489599609375	-0.09883209991455078	0.05142800140380859	0.9859959716796876
13	0.43333333333333335	0.0036505899429321287	0.061297000885009764	0.962114013671875	-0.006799320220947266	0.03856549835205078	0.9648209838867188	-0.03529940032958984	0.02562540054321289	0.9682059936523437	-0.06179079818725586	0.03719049835205078	0.9781010131835938	0.029349300384521486	0.02633329963684082	0.8611909790039063	0.012865500450134277	0.026978200912475585	0.8782329711914062	-0.005843689918518066	0.02880430030822754	0.8933709716796875	-0.0399807014465332	0.034228000640869144	0.9184639892578125	-0.015820899963378907	0.04576110076904297	0.9556859741210938	0.000925916016101837	0.05013930130004883	0.9447459716796875	0.000842106997966766	0.05688650131225586	0.9180180053710938	-0.04507429885864258	0.0578140983581543	0.91585498046875	-0.013942299842834472	0.05585329818725586	0.9629130249023438	-0.0008784490227699281	0.06542320251464843	0.9497490234375	-0.002871690034866333	0.07814700317382813	0.9272919921875	-0.04649769973754883	0.07740889739990234	0.9269849853515625	0.011237500190734863	0.1261529998779297	0.9163770141601563	-0.002341779947280884	0.1131780014038086	0.9262069702148438	-0.015505000114440918	0.10200299835205077	0.9336259765625	-0.03936240005493164	0.08570570373535157	0.9446900024414062	-0.09875180053710937	0.051535099029541016	0.9862160034179688
14	0.4666666666666667	0.003494339942932129	0.062014701843261716	0.961823974609375	-0.006685369968414306	0.039290298461914064	0.964239990234375	-0.03504499816894531	0.02613330078125	0.9681409912109376	-0.061909999847412106	0.03729909896850586	0.977280029296875	0.029153499603271484	0.027112600326538085	0.860802001953125	0.012687700271606445	0.027652099609375	0.8779420166015625	-0.006077980041503906	0.02936910057067871	0.893072998046875	-0.04014070129394531	0.03468450164794922	0.9182890014648437	-0.015944700241088867	0.04630289840698242	0.9551380004882812	0.0008616319894790641	0.05079050064086914	0.94443798828125	0.000722042977809906	0.057500701904296875	0.9174860229492188	-0.045226799011230466	0.058129100799560546	0.9156220092773437	-0.013816399574279785	0.05632080078125	0.9627219848632812	-0.001146690011024475	0.0657323989868164	0.95025	-0.003146480083465576	0.07878970336914062	0.9269550170898437	-0.04673899841308594	0.07782559967041015	0.9267949829101563	0.010618900299072266	0.12661199951171875	0.9157490234375	-0.002855249881744384	0.11366300201416016	0.9257639770507813	-0.01587440013885498	0.10243299865722656	0.9333170166015625	-0.039418201446533206	0.08619120025634766	0.9447520141601562	-0.0987790985107422	0.051584499359130856	0.9859639892578125
15	0.5	0.003655999898910522	0.06234590148925781	0.9615150146484375	-0.0067559900283813475	0.03967309951782227	0.9639710083007812	-0.03498740005493164	0.026444000244140627	0.9680419921875	-0.06181269836425781	0.03782730102539063	0.9777100219726562	0.028886699676513673	0.027715200424194335	0.8605469970703125	0.012473999977111816	0.028203800201416017	0.8776749877929687	-0.006175749778747559	0.029879600524902343	0.8928709716796875	-0.04025230026245117	0.03494329833984375	0.918125	-0.01602669906616211	0.04663249969482422	0.9548330078125	0.0009134160280227661	0.051114898681640625	0.9440889892578125	0.000500142991542816	0.057889999389648436	0.9173980102539062	-0.045402400970458986	0.05850870132446289	0.9156389770507812	-0.0131427001953125	0.05681990051269531	0.9615380249023437	-0.0009703350067138671	0.06631580352783203	0.9494349975585937	-0.003283819913864135	0.07919270324707031	0.9267520141601563	-0.04699319839477539	0.07817389678955078	0.9268729858398438	0.01048799991607666	0.12697799682617186	0.9156110229492187	-0.0029355099201202393	0.11398699951171876	0.9256400146484375	-0.015912400245666505	0.10276000213623047	0.9332230224609375	-0.03957550048828125	0.086502197265625	0.9445330200195312	-0.09877179718017579	0.05170240020751953	0.9858880004882813
